# xmcd
#
# Track frame offsets:
#	150
#	13627
#	27047
#	39429
#	55523
#	72489
#	83207
#	96946
#	109649
#	123008
#
# Disc length: 1820 seconds
#
# Revision: 0
# Processed by: cddbd v1.4PL0 Copyright (c) Steve Scherf et al.
# Submitted via: dBpowerAMP V4.0
#
DISCID=71071a0a
DTITLE=John Anderson - Greatest Hits
DYEAR=1900
DGENRE=Country
TTITLE0=Swingin'
TTITLE1=I Just Came Home To Count The Memories
TTITLE2=She Just Started Liking Cheatin' Songs
TTITLE3=1959
TTITLE4=Chicken Truck
TTITLE5=I'm Just An Old Chunk Of Coal (But I'm Gonna Be A Diamond Someday)
TTITLE6=Would You Catch A Falling Star
TTITLE7=Wild And Blue
TTITLE8=Your Lying Blue Eyes
TTITLE9=Black Sheep
EXTD=
EXTT0=
EXTT1=
EXTT2=
EXTT3=
EXTT4=
EXTT5=
EXTT6=
EXTT7=
EXTT8=
EXTT9=
PLAYORDER=
